<svg width="19" height="20" viewBox="0 0 19 20" fill="none" xmlns="http://www.w3.org/2000/svg">
<path id="Vector" d="M1.35156 7H17.3516M1.35156 7V15.8002C1.35156 16.9203 1.35156 17.4801 1.56955 17.9079C1.7613 18.2842 2.06704 18.5905 2.44336 18.7822C2.87076 19 3.43056 19 4.54847 19H14.1547C15.2726 19 15.8316 19 16.259 18.7822C16.6353 18.5905 16.942 18.2842 17.1338 17.9079C17.3516 17.4805 17.3516 16.9215 17.3516 15.8036V7M1.35156 7V6.2002C1.35156 5.08009 1.35156 4.51962 1.56955 4.0918C1.7613 3.71547 2.06704 3.40973 2.44336 3.21799C2.87118 3 3.43165 3 4.55176 3H5.35156M17.3516 7V6.19691C17.3516 5.07899 17.3516 4.5192 17.1338 4.0918C16.942 3.71547 16.6353 3.40973 16.259 3.21799C15.8311 3 15.2719 3 14.1518 3H13.3516M5.35156 3H13.3516M5.35156 3V1M13.3516 3V1M12.3516 11L8.35156 15L6.35156 13" stroke="white" stroke-width="1.5" stroke-linecap="round" stroke-linejoin="round"/>
</svg>
