<svg width="164" height="34" viewBox="0 0 164 34" fill="none" xmlns="http://www.w3.org/2000/svg">
<g id="logoipsum-237">
<path id="Path 1192" d="M47.7434 23.3647C47.7434 24.1947 47.5781 24.8324 47.2477 25.2779C46.9258 25.7236 46.3878 25.9463 45.6338 25.9463C44.9221 25.9463 44.4181 25.7236 44.1215 25.2779C43.8335 24.8324 43.6895 24.1947 43.6895 23.3647V9.51325C43.6895 8.68328 43.8335 8.04553 44.1215 7.59998C44.4181 7.15442 44.9221 6.93164 45.6338 6.93164C46.3878 6.93164 46.9258 7.15442 47.2477 7.59998C47.5781 8.04553 47.7434 8.68328 47.7434 9.51325V23.3647Z" fill="white"/>
<path id="Path 1193" d="M48.9785 19.3407C48.9785 18.4145 49.1225 17.541 49.4107 16.7197C49.7071 15.8897 50.1476 15.1647 50.7322 14.5444C51.3253 13.9241 52.0624 13.4305 52.9435 13.0636C53.8331 12.6966 54.8751 12.5132 56.0697 12.5132C57.2134 12.5132 58.2259 12.6835 59.1069 13.0242C59.988 13.365 60.7294 13.8411 61.3308 14.4527C61.9323 15.0554 62.3898 15.7761 62.7033 16.6148C63.0167 17.4448 63.1735 18.3534 63.1735 19.3407C63.1735 20.258 63.0252 21.1272 62.7287 21.9484C62.4322 22.7608 61.9874 23.4773 61.3943 24.0976C60.8014 24.7091 60.06 25.1983 59.1705 25.5653C58.2808 25.9235 57.2473 26.1025 56.0697 26.1025C54.909 26.1025 53.8839 25.9322 52.9943 25.5915C52.1132 25.242 51.3719 24.7659 50.7704 24.163C50.1773 23.5516 49.7283 22.8352 49.4233 22.014C49.1268 21.184 48.9785 20.2929 48.9785 19.3407ZM53.2104 19.3407C53.2104 19.9172 53.2611 20.4676 53.3629 20.9918C53.4645 21.5072 53.6255 21.9615 53.8457 22.3547C54.0745 22.7478 54.371 23.0623 54.7353 23.2982C55.0997 23.5253 55.5444 23.6389 56.0697 23.6389C56.5526 23.6389 56.9719 23.5341 57.3277 23.3243C57.6921 23.1148 57.9886 22.822 58.2174 22.4464C58.4546 22.0708 58.6325 21.6208 58.751 21.0967C58.8697 20.5637 58.929 19.9784 58.929 19.3407C58.929 18.764 58.8739 18.2179 58.7638 17.7025C58.6621 17.1784 58.497 16.7197 58.2681 16.3265C58.0394 15.9247 57.743 15.6102 57.3786 15.3831C57.0228 15.1472 56.5864 15.0293 56.0697 15.0293C55.5529 15.0293 55.1124 15.1428 54.748 15.37C54.3837 15.5971 54.0872 15.9072 53.8584 16.3004C53.6297 16.6935 53.4645 17.1521 53.3629 17.6764C53.2611 18.2005 53.2104 18.7553 53.2104 19.3407Z" fill="white"/>
<path id="Path 1194" d="M73.6037 23.4168C73.3749 23.8536 73.0953 24.2249 72.7649 24.5307C72.443 24.8365 72.0829 25.0899 71.6848 25.2908C71.295 25.4829 70.8757 25.6271 70.4266 25.7232C69.986 25.8106 69.5328 25.8543 69.0669 25.8543C68.2874 25.8543 67.5758 25.7101 66.9319 25.4217C66.288 25.1335 65.7331 24.7185 65.2672 24.1769C64.8096 23.6265 64.4538 22.9538 64.1996 22.1588C63.9454 21.3637 63.8184 20.4551 63.8184 19.4331C63.8184 18.472 63.937 17.5722 64.1743 16.7335C64.4114 15.8948 64.7545 15.1654 65.2036 14.5451C65.6611 13.9248 66.2202 13.4355 66.8811 13.0774C67.5418 12.7192 68.2959 12.54 69.1431 12.54C70.1089 12.54 70.9646 12.7323 71.7102 13.1166C72.4642 13.5011 73.1123 14.1301 73.6545 15.0037V14.663C73.6545 14.034 73.8197 13.5622 74.1501 13.2477C74.489 12.9245 74.955 12.7628 75.548 12.7628C75.9038 12.7628 76.2046 12.824 76.4503 12.9463C76.6959 13.0599 76.8908 13.2346 77.0348 13.4705C77.1789 13.6977 77.2805 13.9816 77.3398 14.3223C77.4076 14.6542 77.4415 15.0343 77.4415 15.4624V24.2424C77.4415 25.3082 77.3102 26.2604 77.0476 27.0991C76.7934 27.9378 76.3952 28.6456 75.853 29.2221C75.3108 29.7987 74.6161 30.2355 73.7688 30.5326C72.9217 30.8383 71.9135 30.9912 70.7444 30.9912C69.9226 30.9912 69.194 30.952 68.5585 30.8732C67.9316 30.8034 67.3894 30.6942 66.9319 30.5457C66.4744 30.3796 66.1271 30.1962 65.8898 29.9953C65.6611 29.7943 65.5467 29.5322 65.5467 29.209C65.5467 29.0255 65.5721 28.8509 65.6229 28.6848C65.6738 28.5189 65.7501 28.3704 65.8517 28.2393C65.9618 28.117 66.1016 28.0165 66.2711 27.9378C66.449 27.868 66.665 27.833 66.9192 27.833C67.1903 27.833 67.4614 27.8505 67.7325 27.8855C68.0121 27.9204 68.3002 27.9554 68.5967 27.9903C68.9016 28.034 69.2193 28.0732 69.5498 28.1082C69.8886 28.1431 70.2529 28.1607 70.6427 28.1607C71.1086 28.1607 71.5237 28.1126 71.8881 28.0165C72.2524 27.9204 72.5615 27.7501 72.8157 27.5054C73.0699 27.2608 73.2648 26.9332 73.4003 26.5226C73.5359 26.1207 73.6037 25.6053 73.6037 24.9762V23.4168ZM73.6037 19.3414C73.6037 18.7035 73.557 18.1226 73.4639 17.5985C73.3792 17.0742 73.2308 16.6287 73.0191 16.2617C72.8073 15.8861 72.5235 15.5978 72.1677 15.3968C71.8118 15.1872 71.367 15.0824 70.8333 15.0824C70.308 15.0824 69.8717 15.1915 69.5244 15.4099C69.1855 15.6283 68.9144 15.9298 68.7111 16.3141C68.5077 16.6986 68.3637 17.1485 68.2789 17.664C68.2027 18.1794 68.1646 18.7298 68.1646 19.3151C68.1646 20.6517 68.3933 21.6565 68.8509 22.3291C69.3083 23.0019 69.9733 23.3382 70.846 23.3382C71.2526 23.3295 71.6212 23.2508 71.9516 23.1023C72.2904 22.945 72.5828 22.7048 72.8284 22.3816C73.0741 22.0583 73.2648 21.6476 73.4003 21.1497C73.5359 20.6517 73.6037 20.049 73.6037 19.3414Z" fill="white"/>
<path id="Path 1195" d="M78.6074 19.3407C78.6074 18.4145 78.7514 17.541 79.0395 16.7197C79.336 15.8897 79.7765 15.1647 80.3611 14.5444C80.9542 13.9241 81.6912 13.4305 82.5723 13.0636C83.462 12.6966 84.504 12.5132 85.6986 12.5132C86.8422 12.5132 87.8546 12.6835 88.7357 13.0242C89.6168 13.365 90.3582 13.8411 90.9597 14.4527C91.5612 15.0554 92.0187 15.7761 92.3321 16.6148C92.6456 17.4448 92.8023 18.3534 92.8023 19.3407C92.8023 20.258 92.6541 21.1272 92.3576 21.9484C92.061 22.7608 91.6163 23.4773 91.0232 24.0976C90.4302 24.7091 89.6888 25.1983 88.7993 25.5653C87.9097 25.9235 86.8762 26.1025 85.6986 26.1025C84.5378 26.1025 83.5127 25.9322 82.6232 25.5915C81.7421 25.242 81.0007 24.7659 80.3992 24.163C79.8063 23.5516 79.3572 22.8352 79.0521 22.014C78.7557 21.184 78.6074 20.2929 78.6074 19.3407ZM82.8392 19.3407C82.8392 19.9172 82.89 20.4676 82.9918 20.9918C83.0934 21.5072 83.2543 21.9615 83.4746 22.3547C83.7033 22.7478 83.9998 23.0623 84.3642 23.2982C84.7285 23.5253 85.1733 23.6389 85.6986 23.6389C86.1815 23.6389 86.6008 23.5341 86.9566 23.3243C87.3209 23.1148 87.6175 22.822 87.8462 22.4464C88.0835 22.0708 88.2613 21.6208 88.3799 21.0967C88.4986 20.5637 88.5579 19.9784 88.5579 19.3407C88.5579 18.764 88.5028 18.2179 88.3926 17.7025C88.291 17.1784 88.1258 16.7197 87.897 16.3265C87.6683 15.9247 87.3717 15.6102 87.0075 15.3831C86.6517 15.1472 86.2153 15.0293 85.6986 15.0293C85.1818 15.0293 84.7411 15.1428 84.3769 15.37C84.0126 15.5971 83.716 15.9072 83.4873 16.3004C83.2586 16.6935 83.0934 17.1521 82.9918 17.6764C82.89 18.2005 82.8392 18.7553 82.8392 19.3407Z" fill="white"/>
<path id="Path 1196" d="M98.2544 8.0978C98.2544 8.38611 98.1909 8.64382 98.0638 8.87097C97.9367 9.08938 97.7715 9.27279 97.5682 9.42141C97.3649 9.56991 97.1276 9.68341 96.8565 9.76203C96.594 9.83192 96.3229 9.86692 96.0432 9.86692C95.7467 9.86692 95.4629 9.82756 95.1918 9.74894C94.9291 9.67033 94.6962 9.55683 94.4929 9.40821C94.2895 9.25099 94.1285 9.06317 94.0099 8.84476C93.8914 8.62635 93.832 8.37736 93.832 8.0978C93.832 7.84445 93.8871 7.61294 93.9972 7.40326C94.1158 7.18486 94.2725 6.99703 94.4674 6.83977C94.6623 6.68252 94.8953 6.5602 95.1664 6.47284C95.4375 6.38548 95.734 6.3418 96.056 6.3418C96.3355 6.3418 96.6066 6.38112 96.8693 6.45974C97.1404 6.53836 97.3776 6.65193 97.5809 6.80046C97.7842 6.94898 97.9453 7.13244 98.0638 7.35084C98.1909 7.56926 98.2544 7.81824 98.2544 8.0978ZM98.0638 23.3646C98.0638 24.1945 97.8986 24.8323 97.5682 25.2778C97.2463 25.7234 96.7083 25.9462 95.9543 25.9462C95.2427 25.9462 94.7385 25.7234 94.442 25.2778C94.154 24.8323 94.0099 24.1945 94.0099 23.3646V15.3446C94.0099 14.5146 94.154 13.8769 94.442 13.4314C94.7385 12.9858 95.2427 12.763 95.9543 12.763C96.7083 12.763 97.2463 12.9858 97.5682 13.4314C97.8986 13.8769 98.0638 14.5146 98.0638 15.3446V23.3646Z" fill="white"/>
<path id="Path 1197" d="M103.904 19.3151C103.904 19.9005 103.947 20.4464 104.032 20.9532C104.125 21.4599 104.277 21.9054 104.489 22.2899C104.709 22.6655 104.997 22.9625 105.353 23.1809C105.717 23.3994 106.167 23.5085 106.7 23.5085C107.192 23.5085 107.603 23.4038 107.933 23.1941C108.272 22.9757 108.543 22.6786 108.747 22.3029C108.949 21.9185 109.094 21.4686 109.178 20.9532C109.271 20.4377 109.318 19.8786 109.318 19.2758C109.318 18.7953 109.284 18.3061 109.216 17.8081C109.149 17.3013 109.022 16.8427 108.835 16.4321C108.649 16.0215 108.391 15.6851 108.06 15.423C107.729 15.161 107.298 15.0299 106.764 15.0299C106.23 15.0299 105.777 15.1173 105.404 15.2921C105.04 15.4667 104.743 15.7332 104.514 16.0914C104.294 16.4496 104.137 16.8995 104.044 17.4411C103.951 17.9741 103.904 18.5987 103.904 19.3151ZM103.892 15.3444C104.104 14.8814 104.375 14.4752 104.705 14.1257C105.035 13.7763 105.4 13.4836 105.798 13.2477C106.196 13.0118 106.611 12.837 107.043 12.7235C107.484 12.6012 107.92 12.54 108.352 12.54C109.132 12.54 109.835 12.7192 110.462 13.0774C111.089 13.4355 111.622 13.9248 112.063 14.5451C112.512 15.1566 112.855 15.8817 113.093 16.7204C113.329 17.5504 113.449 18.4415 113.449 19.3937C113.449 20.3809 113.321 21.2851 113.067 22.1064C112.822 22.9276 112.469 23.6352 112.012 24.2292C111.563 24.8146 111.021 25.2732 110.385 25.6053C109.758 25.9373 109.06 26.1032 108.289 26.1032C107.34 26.1032 106.493 25.8761 105.747 25.4217C105.002 24.9675 104.383 24.3298 103.892 23.5085V28.2262C103.892 29.0561 103.727 29.6939 103.396 30.1394C103.074 30.5849 102.536 30.8078 101.782 30.8078C101.071 30.8078 100.566 30.5849 100.27 30.1394C99.9819 29.6939 99.8379 29.0561 99.8379 28.2262V15.3444C99.8379 14.5144 99.9819 13.8767 100.27 13.4312C100.566 12.9857 101.071 12.7628 101.782 12.7628C102.536 12.7628 103.074 12.9857 103.396 13.4312C103.727 13.8767 103.892 14.5144 103.892 15.3444Z" fill="white"/>
<path id="Path 1198" d="M117.92 16.2742C117.92 16.6148 118.064 16.8813 118.352 17.0735C118.64 17.257 119.038 17.4099 119.547 17.5322C120.029 17.6457 120.525 17.755 121.033 17.8598C121.542 17.9647 122.038 18.087 122.52 18.2268C123.003 18.3577 123.456 18.5151 123.88 18.6985C124.303 18.882 124.676 19.1134 124.998 19.393C125.32 19.6638 125.574 19.9959 125.76 20.3889C125.947 20.7734 126.04 21.2364 126.04 21.778C126.04 22.4595 125.905 23.0667 125.633 23.5995C125.362 24.1238 124.977 24.5693 124.478 24.9363C123.986 25.3032 123.397 25.5871 122.711 25.7881C122.025 25.989 121.266 26.0938 120.436 26.1025C119.649 26.1025 118.889 26.0502 118.161 25.9453C117.433 25.8492 116.785 25.6963 116.216 25.4866C115.658 25.2769 115.209 25.0193 114.869 24.7134C114.531 24.399 114.362 24.0321 114.362 23.6127C114.362 23.2457 114.476 22.9618 114.705 22.7608C114.933 22.56 115.225 22.4595 115.582 22.4595C115.718 22.4595 115.878 22.4856 116.065 22.5381C116.251 22.5905 116.454 22.6561 116.674 22.7347C116.894 22.8133 117.127 22.9006 117.373 22.9968C117.627 23.0841 117.89 23.1627 118.161 23.2326C118.5 23.3288 118.847 23.4074 119.203 23.4686C119.567 23.5209 119.94 23.5472 120.322 23.5472C120.558 23.5472 120.792 23.5253 121.02 23.4817C121.249 23.4292 121.453 23.355 121.631 23.2589C121.817 23.154 121.969 23.023 122.089 22.8657C122.207 22.7085 122.278 22.5163 122.304 22.2892C122.329 22.2367 122.351 22.1843 122.367 22.1318C122.385 22.0795 122.393 22.0183 122.393 21.9484C122.393 21.7038 122.283 21.4854 122.062 21.2931C121.851 21.101 121.55 20.948 121.16 20.8345C120.507 20.6773 119.885 20.5332 119.292 20.4021C118.7 20.2711 118.149 20.1313 117.64 19.9828C117.14 19.8343 116.683 19.6638 116.267 19.4716C115.861 19.2795 115.514 19.0436 115.225 18.764C114.946 18.4844 114.725 18.1481 114.565 17.755C114.412 17.3618 114.336 16.8857 114.336 16.3265C114.336 15.7238 114.467 15.1865 114.73 14.7147C115.001 14.2342 115.387 13.8324 115.887 13.5091C116.387 13.1858 116.992 12.9413 117.704 12.7753C118.416 12.6005 119.22 12.5132 120.118 12.5132C121.727 12.5132 122.952 12.7141 123.791 13.1159C124.638 13.5091 125.062 14.0245 125.062 14.6624C125.062 15.0205 124.947 15.2957 124.718 15.4878C124.489 15.6714 124.214 15.763 123.893 15.763C123.723 15.763 123.545 15.7325 123.358 15.6714C123.181 15.6015 122.965 15.5272 122.711 15.4486C122.456 15.3613 122.151 15.287 121.796 15.2258C121.449 15.1559 121.016 15.1209 120.5 15.1209C120.109 15.1209 119.754 15.1384 119.432 15.1734C119.118 15.2083 118.847 15.2695 118.618 15.3568C118.398 15.4442 118.225 15.5621 118.098 15.7107C117.979 15.8592 117.92 16.047 117.92 16.2742Z" fill="white"/>
<path id="Path 1199" d="M131.192 21.0841C131.192 21.4947 131.243 21.8529 131.345 22.1587C131.455 22.4644 131.603 22.7222 131.79 22.9319C131.976 23.1328 132.192 23.2857 132.437 23.3905C132.692 23.4866 132.963 23.5347 133.25 23.5347C133.59 23.5347 133.916 23.4823 134.23 23.3774C134.543 23.2726 134.819 23.1109 135.056 22.8925C135.301 22.6741 135.496 22.3989 135.641 22.0669C135.784 21.735 135.856 21.3462 135.856 20.9007V15.3443C135.856 14.5143 136.001 13.8766 136.288 13.4311C136.585 12.9856 137.089 12.7627 137.801 12.7627C138.554 12.7627 139.092 12.9856 139.414 13.4311C139.745 13.8766 139.91 14.5143 139.91 15.3443V23.3643C139.91 24.1943 139.745 24.832 139.414 25.2775C139.092 25.7231 138.554 25.9459 137.801 25.9459C137.089 25.9459 136.585 25.7231 136.288 25.2775C136.001 24.832 135.856 24.1943 135.856 23.3643C135.679 23.7662 135.445 24.1331 135.157 24.4651C134.877 24.7971 134.547 25.0854 134.166 25.33C133.793 25.5659 133.378 25.7493 132.921 25.8804C132.472 26.0114 131.984 26.0769 131.459 26.0769C130.892 26.0769 130.345 25.9764 129.819 25.7756C129.303 25.5659 128.846 25.2601 128.448 24.8582C128.05 24.4477 127.732 23.9409 127.494 23.3381C127.257 22.7353 127.139 22.032 127.139 21.2282V15.3443C127.139 14.5143 127.283 13.8766 127.57 13.4311C127.867 12.9856 128.371 12.7627 129.083 12.7627C129.837 12.7627 130.375 12.9856 130.697 13.4311C131.027 13.8766 131.192 14.5143 131.192 15.3443V21.0841Z" fill="white"/>
<path id="Path 1200" d="M141.754 15.3444C141.754 14.5144 141.898 13.8767 142.187 13.4312C142.483 12.9857 142.987 12.7628 143.698 12.7628C144.453 12.7628 144.991 12.9857 145.313 13.4312C145.643 13.8767 145.809 14.5144 145.809 15.3444C145.978 14.9251 146.207 14.5451 146.495 14.2043C146.791 13.8549 147.126 13.5579 147.498 13.3132C147.88 13.0686 148.291 12.8808 148.731 12.7497C149.171 12.6099 149.629 12.54 150.104 12.54C150.544 12.54 150.976 12.6012 151.4 12.7235C151.831 12.837 152.231 13.0249 152.595 13.287C152.967 13.5403 153.293 13.8636 153.573 14.2568C153.853 14.6498 154.069 15.1216 154.222 15.672C154.484 15.0867 154.793 14.5932 155.149 14.1913C155.504 13.7894 155.891 13.4661 156.305 13.2215C156.72 12.9768 157.153 12.8022 157.602 12.6973C158.059 12.5925 158.516 12.54 158.974 12.54C159.516 12.54 160.033 12.6406 160.524 12.8414C161.024 13.0424 161.46 13.3482 161.833 13.7588C162.215 14.1606 162.515 14.6718 162.735 15.2921C162.964 15.9035 163.078 16.62 163.078 17.4411V23.3644C163.078 24.1944 162.913 24.8321 162.583 25.2776C162.262 25.7232 161.723 25.946 160.969 25.946C160.257 25.946 159.753 25.7232 159.457 25.2776C159.169 24.8321 159.025 24.1944 159.025 23.3644V17.6246C159.025 17.2314 158.974 16.882 158.873 16.5763C158.771 16.2617 158.627 15.9997 158.44 15.79C158.262 15.5716 158.051 15.4099 157.805 15.3051C157.559 15.1915 157.296 15.1347 157.017 15.1347C156.669 15.1347 156.339 15.1915 156.026 15.3051C155.713 15.4186 155.437 15.5934 155.2 15.8293C154.971 16.0652 154.784 16.3666 154.64 16.7335C154.505 17.1004 154.437 17.5416 154.437 18.057V23.3644C154.437 24.1944 154.271 24.8321 153.942 25.2776C153.62 25.7232 153.082 25.946 152.327 25.946C151.616 25.946 151.111 25.7232 150.815 25.2776C150.527 24.8321 150.383 24.1944 150.383 23.3644V17.8735C150.383 16.9738 150.201 16.2923 149.837 15.8293C149.48 15.3663 148.994 15.1347 148.375 15.1347C148.011 15.1347 147.672 15.1959 147.358 15.3182C147.045 15.4406 146.774 15.6196 146.545 15.8555C146.316 16.0914 146.134 16.384 145.998 16.7335C145.871 17.0829 145.809 17.4848 145.809 17.9391V23.3644C145.809 24.1944 145.643 24.8321 145.313 25.2776C144.991 25.7232 144.453 25.946 143.698 25.946C142.987 25.946 142.483 25.7232 142.187 25.2776C141.898 24.8321 141.754 24.1944 141.754 23.3644V15.3444Z" fill="white"/>
<path id="Path 1201" d="M17.2624 23.71C13.669 23.71 10.7559 20.7061 10.7559 17.0005C10.7559 13.295 13.669 10.291 17.2624 10.291C20.8559 10.291 23.769 13.295 23.769 17.0005C23.769 20.7061 20.8559 23.71 17.2624 23.71Z" fill="white"/>
<path id="Path 1202" d="M4.66405 19.2919C2.7785 19.6347 1.48606 21.513 2.20986 23.3408C3.22037 25.8927 4.83251 28.1663 6.92254 29.943C9.91112 32.4833 13.6806 33.8408 17.5531 33.7711C21.4255 33.7015 25.1469 32.2091 28.0477 29.5627C30.0762 27.712 31.6105 25.3817 32.5341 22.795C33.1956 20.9422 31.8403 19.1116 29.9443 18.8369C28.0484 18.5621 26.346 19.9852 25.4095 21.7073C24.9019 22.6407 24.2429 23.4876 23.4534 24.2078C21.789 25.7263 19.6539 26.5824 17.4321 26.6225C15.2103 26.6624 13.0475 25.8836 11.3328 24.426C10.5194 23.7346 9.83217 22.912 9.29323 21.9974C8.29904 20.31 6.54959 18.949 4.66405 19.2919Z" fill="white"/>
<path id="Path 1203" d="M33.4031 19.096C33.4862 18.4093 33.5289 17.7097 33.5289 16.9999C33.5289 7.73596 26.2462 0.226074 17.2625 0.226074C8.27881 0.226074 0.996094 7.73596 0.996094 16.9999C0.996094 17.9109 1.06653 18.8049 1.20209 19.6766C1.94924 18.6219 3.11535 17.869 4.37491 17.6399C5.7377 17.3921 6.97625 17.733 8.02347 18.3701C7.96161 17.9225 7.92959 17.4651 7.92959 16.9999C7.92959 11.6847 12.1081 7.37585 17.2625 7.37585C22.4169 7.37585 26.5954 11.6847 26.5954 16.9999C26.5954 17.3503 26.5772 17.6964 26.5418 18.0372C27.5669 17.3625 28.7934 16.9771 30.164 17.1758C31.4302 17.3593 32.6207 18.0694 33.4031 19.096Z" fill="white"/>
</g>
</svg>
