<svg width="19" height="19" viewBox="0 0 19 19" fill="none" xmlns="http://www.w3.org/2000/svg">
<g id="Dribbble svg" clip-path="url(#clip0_111_656)">
<path id="Vector" fill-rule="evenodd" clip-rule="evenodd" d="M9.93945 0.0247803C4.97091 0.0247803 0.939453 4.05624 0.939453 9.02478C0.939453 13.9933 4.97091 18.0248 9.93945 18.0248C14.8982 18.0248 18.9395 13.9933 18.9395 9.02478C18.9395 4.05624 14.8982 0.0247803 9.93945 0.0247803ZM15.8841 4.17337C16.9579 5.48139 17.6021 7.1506 17.6217 8.95645C17.3679 8.90764 14.8299 8.3903 12.2724 8.71241C12.2139 8.58553 12.165 8.44885 12.1065 8.3122C11.9503 7.94127 11.7746 7.56057 11.5989 7.1994C14.4297 6.04756 15.7182 4.38812 15.8841 4.17337ZM9.93945 1.35233C11.8917 1.35233 13.6781 2.08443 15.0349 3.28508C14.8982 3.48031 13.7366 5.03238 11.0035 6.05732C9.74423 3.74387 8.34834 1.85016 8.1336 1.55732C8.70951 1.42066 9.31473 1.35233 9.93945 1.35233ZM6.66939 2.07467C6.87438 2.34799 8.24097 4.25147 9.51971 6.5161C5.92752 7.47271 2.75508 7.4532 2.41342 7.4532C2.91125 5.07142 4.52189 3.08986 6.66939 2.07467ZM2.24748 9.03454C2.24748 8.95645 2.24748 8.87837 2.24748 8.80027C2.57937 8.81002 6.30822 8.85884 10.1444 7.707C10.369 8.1365 10.5739 8.57575 10.7692 9.01503C10.6715 9.04431 10.5642 9.0736 10.4666 9.10286C6.50345 10.3816 4.39499 13.8762 4.21929 14.169C2.9991 12.8122 2.24748 11.0063 2.24748 9.03454ZM9.93945 16.7168C8.16289 16.7168 6.52296 16.1115 5.2247 15.0964C5.36137 14.8133 6.92319 11.8068 11.2572 10.2938C11.2768 10.284 11.2865 10.284 11.306 10.2742C12.3896 13.0758 12.8288 15.4282 12.946 16.1018C12.0186 16.502 11.0035 16.7168 9.93945 16.7168ZM14.2247 15.399C14.1466 14.9304 13.7366 12.6853 12.7312 9.92284C15.1423 9.54214 17.2507 10.1669 17.5143 10.2547C17.1824 12.3925 15.9525 14.2374 14.2247 15.399Z" fill="white"/>
</g>
<defs>
<clipPath id="clip0_111_656">
<rect width="18" height="18" fill="white" transform="translate(0.939453 0.0247803)"/>
</clipPath>
</defs>
</svg>
