<svg width="19" height="19" viewBox="0 0 19 19" fill="none" xmlns="http://www.w3.org/2000/svg">
<path id="Vector" d="M6.21208 0.0876027C5.25447 0.132783 4.60052 0.285605 4.02884 0.510247C3.43717 0.740829 2.93569 1.05025 2.43672 1.55102C1.93776 2.05178 1.63049 2.55363 1.40153 3.14619C1.17995 3.71914 1.02983 4.37363 0.987528 5.33178C0.945228 6.28993 0.935868 6.59791 0.940548 9.04197C0.945228 11.486 0.956028 11.7924 1.00247 12.7525C1.04819 13.71 1.20047 14.3637 1.42511 14.9356C1.65605 15.5273 1.96512 16.0286 2.46606 16.5277C2.96701 17.0269 3.46849 17.3334 4.0625 17.5627C4.63491 17.7839 5.28957 17.9348 6.24754 17.9767C7.20551 18.0187 7.51385 18.0284 9.9572 18.0237C12.4005 18.019 12.7082 18.0082 13.6681 17.9627C14.6281 17.9171 15.2784 17.7638 15.8505 17.5402C16.4421 17.3087 16.9438 17.0002 17.4426 16.4991C17.9414 15.998 18.2484 15.4958 18.4772 14.9028C18.699 14.3304 18.8496 13.6758 18.8912 12.7185C18.9332 11.7578 18.9431 11.4511 18.9384 9.00741C18.9337 6.56371 18.9227 6.25735 18.8772 5.29758C18.8316 4.33781 18.6792 3.68602 18.4547 3.11379C18.2234 2.52213 17.9147 2.02118 17.414 1.52168C16.9132 1.02217 16.4106 0.715269 15.8179 0.487027C15.2451 0.265445 14.5908 0.114423 13.6328 0.0730225C12.6749 0.0316221 12.3665 0.021002 9.92228 0.0256821C7.47803 0.0303621 7.17203 0.0408022 6.21208 0.0876027ZM6.3172 16.3576C5.43969 16.3194 4.96323 16.1736 4.6457 16.0516C4.22522 15.8896 3.9257 15.6938 3.60925 15.3804C3.29281 15.067 3.09841 14.7664 2.93425 14.3468C2.81095 14.0293 2.66245 13.5534 2.6214 12.6759C2.57676 11.7274 2.5674 11.4427 2.56218 9.03981C2.55696 6.63697 2.56614 6.35257 2.60772 5.40378C2.64516 4.52699 2.79187 4.04998 2.91373 3.73264C3.07573 3.31162 3.27085 3.01263 3.58495 2.69637C3.89906 2.38011 4.19876 2.18534 4.6187 2.02118C4.93587 1.89734 5.41179 1.7501 6.28894 1.70834C7.23809 1.66334 7.52249 1.65434 9.92498 1.64912C12.3275 1.6439 12.6126 1.6529 13.5621 1.69466C14.4389 1.73282 14.9161 1.87808 15.2331 2.00066C15.6537 2.16266 15.9531 2.35725 16.2693 2.67189C16.5856 2.98653 16.7805 3.28516 16.9447 3.706C17.0687 4.02226 17.216 4.49801 17.2574 5.3757C17.3025 6.32485 17.3128 6.60943 17.3171 9.01173C17.3214 11.414 17.313 11.6993 17.2714 12.6478C17.2331 13.5253 17.0876 14.0019 16.9654 14.3198C16.8034 14.7401 16.6081 15.0398 16.2938 15.3559C15.9795 15.672 15.6802 15.8667 15.2601 16.0309C14.9432 16.1546 14.4668 16.3022 13.5904 16.3439C12.6412 16.3886 12.3568 16.3979 9.95342 16.4031C7.55003 16.4084 7.26653 16.3986 6.31738 16.3576M13.6543 4.21451C13.6546 4.42813 13.7183 4.63684 13.8373 4.81426C13.9563 4.99168 14.1252 5.12982 14.3227 5.21122C14.5202 5.29263 14.7374 5.31363 14.9469 5.27158C15.1563 5.22953 15.3486 5.12631 15.4993 4.97498C15.6501 4.82365 15.7526 4.63101 15.7939 4.42142C15.8352 4.21182 15.8134 3.99469 15.7313 3.79749C15.6491 3.60029 15.5104 3.43187 15.3325 3.31353C15.1547 3.1952 14.9457 3.13227 14.7321 3.13269C14.4457 3.13327 14.1713 3.24755 13.9692 3.45042C13.7671 3.65329 13.6538 3.92813 13.6543 4.21451ZM5.31837 9.03369C5.32341 11.5861 7.39631 13.6506 9.9482 13.6457C12.5001 13.6408 14.566 11.5681 14.5611 9.01569C14.5562 6.46327 12.4828 4.39829 9.93056 4.40333C7.37831 4.40837 5.31351 6.48163 5.31837 9.03369ZM6.93947 9.03045C6.93829 8.43709 7.1131 7.85671 7.44178 7.3627C7.77045 6.86868 8.23824 6.48323 8.78598 6.25507C9.33373 6.02692 9.93683 5.96632 10.519 6.08092C11.1012 6.19553 11.6363 6.4802 12.0567 6.89894C12.4771 7.31768 12.7639 7.85168 12.8808 8.4334C12.9977 9.01513 12.9395 9.61847 12.7135 10.1671C12.4876 10.7158 12.104 11.1851 11.6113 11.5157C11.1185 11.8463 10.5389 12.0234 9.9455 12.0246C9.55151 12.0254 9.16121 11.9486 8.79691 11.7986C8.4326 11.6486 8.10141 11.4282 7.82227 11.1502C7.54312 10.8722 7.32148 10.5419 7.17001 10.1781C7.01854 9.81443 6.9402 9.42445 6.93947 9.03045Z" fill="white"/>
</svg>
