<svg width="20" height="20" viewBox="0 0 20 20" fill="none" xmlns="http://www.w3.org/2000/svg">
<path id="linkedin-in" d="M4.95967 19.0248H1.01542V6.32291H4.95967V19.0248ZM2.98542 4.59026C1.72418 4.59026 0.701172 3.54557 0.701172 2.2843C0.701172 1.02272 1.72386 0 2.98542 0C4.24697 0 5.26967 1.02272 5.26967 2.2843C5.26967 3.54557 4.24624 4.59026 2.98542 4.59026ZM19.7217 19.0248H15.786V12.8416C15.786 11.368 15.7562 9.4782 13.7353 9.4782C11.6846 9.4782 11.3703 11.0792 11.3703 12.7354V19.0248H7.43034V6.32291H11.2132V8.05556H11.2684C11.795 7.05759 13.0813 6.00441 15.0003 6.00441C18.9921 6.00441 19.726 8.63311 19.726 12.0475V19.0248H19.7217Z" fill="white"/>
</svg>
