<svg width="120" height="82" viewBox="0 0 120 82" fill="none" xmlns="http://www.w3.org/2000/svg">
<g id="Group 67" opacity="0.09">
<path id="Path 67" d="M66.5143 55.4699C66.5143 39.2125 74.9999 11.1778 97.941 0.231675C100.095 -0.796002 101.443 1.83648 99.6495 3.40277C83.9848 17.0808 78.6989 31.2497 92.822 29.3846C107.351 29.3846 119.13 41.0644 119.13 55.4699C119.13 69.8754 107.351 81.5551 92.822 81.5551C78.2925 81.5551 66.5143 69.8754 66.5143 55.4699Z" fill="#1B1B1B"/>
<path id="Path 68" d="M0.7428 55.4699C0.7428 39.2125 9.2284 11.1778 32.1695 0.231675C34.3239 -0.796002 35.6718 1.83648 33.878 3.40277C18.2133 17.0808 12.9274 31.2497 27.0505 29.3846C41.58 29.3846 53.3588 41.0644 53.3588 55.4699C53.3588 69.8754 41.58 81.5551 27.0505 81.5551C12.521 81.5551 0.7428 69.8754 0.7428 55.4699Z" fill="#1B1B1B"/>
</g>
</svg>
