<svg width="21" height="18" viewBox="0 0 21 18" fill="none" xmlns="http://www.w3.org/2000/svg">
<path id="twitter" d="M18.8626 4.5267C18.8755 4.70877 18.8755 4.89087 18.8755 5.07294C18.8755 10.6261 14.707 17.0247 7.0883 17.0247C4.74112 17.0247 2.5607 16.3354 0.726562 15.139C1.06005 15.178 1.38067 15.191 1.72699 15.191C3.6637 15.191 5.44655 14.5278 6.87025 13.3963C5.04894 13.3573 3.52264 12.1478 2.99676 10.4831C3.2533 10.5221 3.5098 10.5481 3.77918 10.5481C4.15112 10.5481 4.52311 10.4961 4.86939 10.4051C2.97114 10.0149 1.5474 8.32423 1.5474 6.28241V6.23042C2.0989 6.54254 2.74025 6.73762 3.41999 6.7636C2.30412 6.00928 1.57306 4.72178 1.57306 3.26518C1.57306 2.48489 1.77824 1.76959 2.13739 1.14534C4.17674 3.69437 7.24219 5.35901 10.6795 5.54111C10.6154 5.22898 10.5769 4.90389 10.5769 4.57874C10.5769 2.26379 12.4239 0.378052 14.7198 0.378052C15.9126 0.378052 16.99 0.885256 17.7467 1.70459C18.683 1.52252 19.5808 1.17136 20.3761 0.690176C20.0682 1.66559 19.4141 2.48492 18.5548 3.00509C19.3885 2.9141 20.1965 2.67996 20.9404 2.35486C20.3761 3.18716 19.6707 3.92843 18.8626 4.5267Z" fill="white"/>
</svg>
