<svg width="16" height="20" viewBox="0 0 16 20" fill="none" xmlns="http://www.w3.org/2000/svg">
<g id="Vector">
<path d="M1.07031 17.1115C1.07031 14.6984 2.76764 12.643 5.07435 12.2627L5.28213 12.2284C7.12923 11.9239 9.01139 11.9239 10.8585 12.2284L11.0663 12.2627C13.373 12.643 15.0703 14.6984 15.0703 17.1115C15.0703 18.1545 14.2518 19 13.2422 19H2.89844C1.88879 19 1.07031 18.1545 1.07031 17.1115Z" stroke="white" stroke-width="1.5"/>
<path d="M12.1537 4.9375C12.1537 7.11212 10.3255 8.875 8.07033 8.875C5.81517 8.875 3.987 7.11212 3.987 4.9375C3.987 2.76288 5.81517 1 8.07033 1C10.3255 1 12.1537 2.76288 12.1537 4.9375Z" stroke="white" stroke-width="1.5"/>
</g>
</svg>
